<svg width="77" height="77" viewBox="0 0 77 77" fill="none" xmlns="http://www.w3.org/2000/svg">
<path d="M0 38.5015C0.000404494 17.2359 17.2375 0 38.4999 0V0.404494V0.808987C28.0911 0.808987 18.6708 5.02684 11.8486 11.8482C5.02725 18.67 0.809392 28.0907 0.808785 38.5013C0.809392 48.9104 5.02725 58.33 11.8486 65.1516C18.6708 71.973 28.0911 76.1902 38.4999 76.1902C48.9087 76.1902 58.329 71.9726 65.1512 65.1516C71.9728 58.33 76.1906 48.9101 76.1906 38.5013C76.1906 28.0907 71.9728 18.67 65.1512 11.8482C58.329 5.02684 48.9087 0.808987 38.4999 0.808987V0.404494V0C59.7625 0 76.9996 17.2359 77 38.5015C76.9996 59.7635 59.7625 76.9998 38.4999 77C17.2375 76.9998 0.000404494 59.7635 0 38.5015Z" fill="#C5C9CC"/>
<path d="M38.5008 27.5096L38.7609 27.437C25.8144 31.4548 15.5704 38.3385 15.3607 43.3936C15.1354 48.8045 26.4891 50.0738 40.7134 46.2299C54.937 42.3858 66.6547 34.8807 66.8798 29.4701C66.9959 26.6662 64.0011 24.975 59.1099 24.5303C65.0881 24.7976 68.8319 26.5394 68.8319 29.651C68.8319 35.5796 55.249 44.236 38.5004 48.9835C21.7515 53.7301 8.16821 52.7706 8.16821 46.8417C8.16882 40.9135 21.7519 32.2563 38.5008 27.5096Z" fill="#A0A4A7"/>
<path d="M14.1113 58.6843L56.1609 18.3169L52.3483 50.0498L45.3961 42.0886L14.1113 58.6843Z" fill="#E63F3F"/>
</svg>
